<svg width="494" height="494" viewBox="0 0 494 494" fill="none" xmlns="http://www.w3.org/2000/svg">
<path d="M95.1029 447.847C96.0038 441.104 103.387 436.083 110.034 437.458L110.013 379.599C111.207 368.537 113.435 358.713 119.939 349.544C121.634 347.151 130.04 338.387 130.221 336.34C130.456 333.632 121.021 333.909 118.963 333.376C115.296 332.427 109.944 328.419 111.783 324.048C111.895 323.781 115.663 320.156 115.935 319.98C118.617 318.28 134.369 318.925 136.506 321.43C137.498 322.592 138.154 325.967 139.108 327.619C139.833 328.877 141.224 330.668 142.701 330.295C143.975 329.97 147.903 320.711 148.932 318.834C156.87 304.404 163.549 288.161 181.79 286.125C203.865 283.662 228.21 284.254 250.476 285.027C261.09 285.395 274.816 284.931 284.881 288.471C297.786 293.012 307.349 317.491 314.423 328.787C314.7 329.229 314.748 329.799 314.738 330.316C318.528 330.993 321.497 320.796 323.059 320.257C328.608 320.156 333.79 318.402 339.472 319.17C342.409 319.57 347.388 323.578 346.439 326.83C345.794 329.037 342.031 332.641 339.925 333.387C335.719 334.874 330.549 332.646 327.004 335.908C329.984 341.596 335.693 345.69 339.248 350.85C349.862 366.251 347.772 382.328 347.761 399.861C347.756 412.393 347.815 424.936 347.783 437.468C354.313 436.418 361.253 440.267 362.591 446.92C362.735 447.65 363.295 453.743 363.188 454.292C363.071 454.889 363.028 455.246 362.442 455.593H95.1029C95.3321 453.146 94.7831 450.235 95.1029 447.863V447.847ZM328.507 351.549C329.365 350.189 327.206 346.836 326.364 345.589C323.389 341.186 318.357 335.663 313.155 334.277C303.879 331.804 289.14 331.441 279.273 330.844C243.413 328.669 207.436 329.805 171.62 331.926C163.922 332.385 146.416 332.086 140.243 336.265C137.493 338.126 128.883 348.148 129.193 351.362C130.504 353.659 133.351 354.918 135.781 355.989C172.851 372.423 221.286 368.692 261.111 367.082C278.665 366.373 293.554 367.109 310.084 359.513L328.502 351.549H328.507ZM161.561 388.229C162.286 387.504 165.521 383.037 163.49 382.653C155.425 381.235 147.514 378.815 139.47 377.354C135.584 376.651 128.27 375.142 124.662 375.062C123.483 375.036 120.077 375.377 119.693 376.48C118.851 378.895 121.197 387.04 121.229 389.999C129.63 390.292 138.143 391.449 146.517 391.614C151.944 391.721 157.397 392.392 161.561 388.229ZM336.588 389.999C335.383 388.021 337.377 387.435 337.649 386.001C337.788 385.26 338.315 377.648 338.203 376.971C337.99 375.707 336.924 375.291 335.746 375.115C332.516 374.63 322.664 376.667 318.874 377.36C310.335 378.922 301.891 381.539 293.404 383.08C291.571 384.887 300.26 391.219 302.227 391.582C313.72 391.896 325.181 391.193 336.588 389.999ZM302.2 419.328H155.34C156.166 423.449 159.967 425.693 163.309 427.617L294.204 427.863C297.978 427.457 304.961 423.774 304.593 419.334C303.543 419.973 302.813 419.366 302.2 419.334V419.328Z" fill="#D23F20"/>
<path d="M230.359 92.1706C249.214 109.821 268.676 126.841 287.467 144.609C289.274 146.32 297.888 154.241 298.453 155.462C299.381 157.461 297.936 159.215 296.811 160.734C292.323 166.806 283.165 173.272 279.002 179.173C278.138 180.393 277.354 181.54 278.426 182.947C315.511 217.255 352.928 251.34 390.402 285.264C399.571 293.564 412.759 300.254 404.171 315.015C399.059 323.81 388.174 329.605 378.147 325.239C374.165 323.506 366.638 315.862 363.184 312.472C341.93 291.581 321.775 269.149 300.873 247.933C286.662 233.508 272.109 219.451 257.849 205.09C255.003 203.406 253.446 207.484 251.831 209.057C247.79 212.991 243.734 216.919 239.805 221.013C237.945 222.948 233.136 230.065 230.471 229.34L161.412 165.569L161.273 164.892C162.627 161.933 164.722 159.529 166.839 157.104C182.602 139.065 200.928 121.02 217.507 103.557C220.956 99.9268 224.394 96.1473 227.395 92.1333L230.354 92.1653L230.359 92.1706Z" fill="#D23F20"/>
<path d="M288.881 92.775C301.349 104.119 314.281 115.271 326.425 126.929C330.646 130.98 333.712 132.601 332.768 139.152C332.278 142.537 320.865 155.037 317.746 156.109C314.628 157.18 311.253 155.682 308.817 153.593C286.444 132.585 263.261 112.424 241.118 91.2238C238.703 88.9103 230.621 81.5699 229.667 79.2191C226.847 72.2732 231.661 69.9437 235.435 65.8337C240.526 60.2845 244.263 53.1201 252.573 59.5169C264.487 68.691 277.457 82.3855 288.881 92.775Z" fill="#D23F20"/>
<path d="M187.635 200.986C198.568 211.157 209.107 221.856 220.723 231.334C225.126 237.011 234.412 240.545 229.55 249.117C229.007 250.071 218.558 261.474 217.775 261.847C212.817 264.198 209.272 263.142 205.2 259.917C199.933 255.743 193.787 249.245 188.643 244.49C174.884 231.771 161.254 218.514 147.618 205.576C142.527 200.747 133.902 194.456 129.776 189.302C127.564 186.535 126.636 184.552 127.782 180.938C128.278 179.371 134.643 172.163 136.135 170.634C137.825 168.896 142.138 164.695 144.409 164.514C149.11 164.141 151.509 167.201 154.814 170.111C165.907 179.866 176.755 190.874 187.635 200.992V200.986Z" fill="#D23F20"/>
</svg>
