<svg width="1444" height="770" viewBox="0 0 1444 770" fill="none" xmlns="http://www.w3.org/2000/svg">
<path d="M0.193069 733.202C1.88307 720.552 15.7331 711.132 28.2031 713.712L28.1631 605.171C30.4031 584.421 34.5831 565.991 46.7831 548.791C49.9631 544.301 65.7331 527.862 66.0731 524.022C66.5131 518.942 48.8131 519.462 44.9531 518.462C38.0731 516.682 28.0331 509.161 31.4831 500.961C31.6931 500.461 38.7631 493.661 39.2731 493.331C44.3031 490.141 73.8531 491.351 77.8631 496.051C79.7231 498.231 80.9531 504.561 82.7431 507.661C84.1031 510.021 86.7131 513.381 89.4831 512.681C91.8731 512.071 99.2431 494.701 101.173 491.181C116.063 464.111 128.593 433.642 162.813 429.822C204.223 425.202 249.893 426.312 291.663 427.762C311.573 428.452 337.323 427.581 356.203 434.221C380.413 442.741 398.353 488.662 411.623 509.852C412.143 510.682 412.233 511.751 412.213 512.721C419.323 513.991 424.893 494.862 427.823 493.852C438.233 493.662 447.953 490.371 458.613 491.811C464.123 492.561 473.463 500.081 471.683 506.181C470.473 510.321 463.413 517.081 459.463 518.481C451.573 521.271 441.873 517.092 435.223 523.212C440.813 533.882 451.523 541.561 458.193 551.241C478.103 580.131 474.183 610.291 474.163 643.181C474.153 666.691 474.263 690.221 474.203 713.731C486.453 711.761 499.473 718.982 501.983 731.462C502.253 732.832 503.303 744.261 503.103 745.291C502.883 746.411 502.803 747.081 501.703 747.731H0.193069C0.623069 743.141 -0.406931 737.681 0.193069 733.231V733.202ZM438.043 552.551C439.653 550.001 435.603 543.711 434.023 541.371C428.443 533.111 419.003 522.752 409.243 520.152C391.843 515.512 364.193 514.832 345.683 513.712C278.413 509.632 210.923 511.761 143.733 515.741C129.293 516.601 96.4531 516.042 84.8731 523.882C79.7131 527.372 63.5631 546.172 64.1431 552.202C66.6031 556.512 71.9431 558.872 76.5031 560.882C146.043 591.712 236.903 584.711 311.613 581.691C344.543 580.361 372.473 581.741 403.483 567.491L438.033 552.551H438.043ZM124.863 621.361C126.223 620.001 132.293 611.622 128.483 610.902C113.353 608.242 98.5131 603.702 83.4231 600.962C76.1331 599.642 62.4131 596.811 55.6431 596.661C53.4331 596.611 47.0431 597.252 46.3231 599.322C44.7431 603.852 49.1431 619.131 49.2031 624.681C64.9631 625.231 80.9331 627.402 96.6431 627.712C106.823 627.912 117.053 629.171 124.863 621.361ZM453.203 624.681C450.943 620.971 454.683 619.871 455.193 617.181C455.453 615.791 456.443 601.511 456.233 600.241C455.833 597.871 453.833 597.092 451.623 596.762C445.563 595.852 427.083 599.671 419.973 600.971C403.953 603.901 388.113 608.812 372.193 611.702C368.753 615.092 385.053 626.972 388.743 627.652C410.303 628.242 431.803 626.921 453.203 624.681ZM388.693 679.702H113.193C114.743 687.432 121.873 691.641 128.143 695.251L373.693 695.712C380.773 694.952 393.873 688.042 393.183 679.712C391.213 680.912 389.843 679.772 388.693 679.712V679.702Z" fill="#D23F20"/>
<path d="M253.944 65.9816C289.314 99.0916 325.824 131.022 361.074 164.352C364.464 167.562 380.624 182.422 381.684 184.712C383.424 188.462 380.714 191.752 378.604 194.602C370.184 205.992 353.004 218.122 345.194 229.192C343.574 231.482 342.104 233.632 344.114 236.272C413.684 300.632 483.874 364.572 554.174 428.212C571.374 443.782 596.114 456.332 580.004 484.022C570.414 500.522 549.994 511.392 531.184 503.202C523.714 499.952 509.594 485.612 503.114 479.252C463.244 440.062 425.434 397.982 386.224 358.182C359.564 331.122 332.264 304.752 305.514 277.812C300.174 274.652 297.254 282.302 294.224 285.252C286.644 292.632 279.034 300.002 271.664 307.682C268.174 311.312 259.154 324.662 254.154 323.302L124.604 203.672L124.344 202.402C126.884 196.852 130.814 192.342 134.784 187.792C164.354 153.952 198.734 120.102 229.834 87.3416C236.304 80.5316 242.754 73.4416 248.384 65.9116L253.934 65.9716L253.944 65.9816Z" fill="#D23F20"/>
<path d="M1044.19 317.702L1103.23 317.162L1151.7 432.712L1156.7 425.712L1200.7 318.722C1201.39 317.762 1203.64 317.112 1204.83 317.042C1215.11 316.442 1227.91 316.892 1238.65 316.662C1242.03 316.592 1259.65 316.052 1260.77 317.692C1261.37 318.412 1260.19 318.952 1260.19 319.202V516.702L1217.76 516.672L1216.36 515.202C1216.33 514.792 1217.19 514.452 1217.19 514.202V390.202C1217.19 387.042 1217.37 383.982 1213.2 384.702L1161.06 516.562L1145.13 516.112L1091.21 385.162L1088.66 385.692L1087.68 516.702H1044.18V317.702H1044.19Z" fill="#11191C"/>
<path d="M1329.99 60.9914C1468.35 51.8114 1481.84 263.041 1345.69 271.691C1204.07 280.691 1192.59 70.1114 1329.99 60.9914ZM1377.78 120.141C1352.33 94.8614 1312.37 96.5414 1291.21 126.211C1267.11 159.981 1279.27 216.941 1322.19 228.201C1386.31 245.031 1419.64 161.721 1377.78 120.141Z" fill="#11191C"/>
<path d="M907.645 592.112C959.585 536.102 1059.16 556.622 1082.92 630.472C1108.81 710.932 1043.22 785.262 960.155 767.242C879.695 749.782 852.775 651.282 907.635 592.122L907.645 592.112ZM1019.61 716.112C1064.94 679.942 1040.59 598.232 979.715 601.712C932.085 604.432 909.275 663.772 934.395 702.002C952.445 729.482 993.895 736.632 1019.61 716.112Z" fill="#11191C"/>
<path d="M856.692 405.702C856.932 405.702 857.452 404.542 858.192 405.132C860.522 406.632 858.382 410.302 858.342 412.352C858.082 426.662 858.892 439.032 855.532 453.552C839.832 521.262 757.282 541.242 703.042 504.352C642.632 463.262 645.862 363.072 708.882 325.902C759.392 296.112 826.232 312.012 854.032 364.362L854.192 366.702L810.672 383.642C808.282 377.202 806.722 373.432 802.222 368.182C776.922 338.712 726.752 351.922 711.992 385.012C701.162 409.292 703.552 442.452 721.872 462.592C750.442 494.002 809.812 485.082 817.192 439.722C802.712 440.042 788.142 439.282 773.652 439.672C770.792 439.752 763.392 442.312 761.612 439.722C761.012 439.002 762.192 438.462 762.192 438.212V408.212C762.192 407.902 760.822 406.792 761.192 405.712C793.012 405.592 824.862 405.872 856.692 405.712V405.702Z" fill="#11191C"/>
<path d="M763.192 654.701L858.252 655.142C859.772 656.202 859.372 673.941 859.182 677.191C856.602 721.111 836.562 752.812 793.192 765.202C694.902 793.272 623.712 687.851 677.372 604.381C717.212 542.401 821.472 545.781 852.272 614.111L810.782 631.782C793.312 591.832 737.602 591.502 715.382 627.402C696.562 657.822 703.692 707.312 738.512 722.882C762.582 733.642 795.812 730.621 810.392 706.421C812.692 702.601 820.292 688.551 812.732 687.661C801.062 686.291 782.002 687.391 769.642 687.661C767.102 687.721 764.792 689.682 763.182 687.212V654.712L763.192 654.701Z" fill="#11191C"/>
<path d="M816.694 268.701L804.094 229.801L723.074 230.291L709.684 268.701H664.684L737.324 65.8415L788.774 64.7515L791.404 66.9815C812.834 129.421 837.754 190.741 859.224 253.161C860.394 256.551 863.314 263.751 863.784 266.631C863.994 267.911 863.504 267.911 862.684 268.701H816.684H816.694ZM737.194 191.701H790.194L765.694 119.691L762.674 118.631L737.194 191.701Z" fill="#11191C"/>
<path d="M997.191 65.7016H1039.69C1040 65.7016 1041.11 64.3316 1042.19 64.7016V202.202C1042.19 205.752 1038.59 218.242 1037.23 222.242C1012.41 295.102 880.011 287.292 874.251 204.152C873.441 160.852 875.131 117.452 874.241 74.1616C874.181 71.3616 873.731 68.4316 873.191 65.7116L917.941 64.8916L920.201 66.2016V198.202C920.201 202.342 926.351 214.732 929.231 218.172C941.791 233.242 970.411 233.062 985.111 221.112C995.371 212.772 997.521 196.692 998.241 184.242C1000.3 148.802 999.151 105.982 998.261 70.1416C998.221 68.4416 997.931 67.2016 997.201 65.7016H997.191Z" fill="#11191C"/>
<path d="M1293.19 315.701L1441.08 316.341L1439.5 349.481C1412.03 388.051 1383.56 426.301 1356.36 465.371C1354.25 468.401 1351.19 471.971 1351.19 475.701H1443.19L1442.11 515.621L1290.19 516.701V487.201C1290.19 485.021 1311.47 455.601 1314.59 451.091C1335.23 421.251 1358.91 391.901 1378.42 361.431C1378.9 360.681 1382.72 355.701 1379.69 355.701H1293.19V315.701Z" fill="#11191C"/>
<path d="M1010.19 314.701V355.701H932.691L931.191 357.201V396.201L934.641 397.751L1002.19 396.701V434.701L932.131 434.141C930.031 435.611 932.351 461.881 932.231 466.251C932.131 470.001 929.361 474.661 932.691 477.711H1010.69C1010.84 477.711 1012.24 475.801 1013.03 478.311C1012.42 487.861 1013.57 497.621 1013.24 507.221C1013.15 509.931 1012.95 514.781 1011.69 516.711H886.191V316.211L1010.19 314.711V314.701Z" fill="#11191C"/>
<path d="M1225.19 64.7014V105.701H1169.19L1169.31 267.101L1124.19 268.701V105.701H1064.19V65.7014L1225.19 64.7014Z" fill="#11191C"/>
<path d="M363.774 67.1115C387.164 88.3915 411.424 109.311 434.204 131.181C442.124 138.781 447.874 141.821 446.104 154.111C445.184 160.461 423.774 183.911 417.924 185.921C412.074 187.931 405.744 185.121 401.174 181.201C359.204 141.791 315.714 103.971 274.174 64.2015C269.644 59.8615 254.484 46.0915 252.694 41.6815C247.404 28.6515 256.434 24.2815 263.514 16.5715C273.064 6.1615 280.074 -7.27851 295.664 4.72149C318.014 21.9315 342.344 47.6215 363.774 67.1115Z" fill="#D23F20"/>
<path d="M173.772 270.111C194.282 289.191 214.052 309.261 235.842 327.041C244.102 337.691 261.522 344.321 252.402 360.401C251.382 362.191 231.782 383.581 230.312 384.281C221.012 388.691 214.362 386.711 206.722 380.661C196.842 372.831 185.312 360.641 175.662 351.721C149.852 327.861 124.282 302.991 98.7016 278.721C89.1516 269.661 72.9716 257.861 65.2316 248.191C61.0816 243.001 59.3416 239.281 61.4916 232.501C62.4216 229.561 74.3616 216.041 77.1616 213.171C80.3316 209.911 88.4216 202.031 92.6816 201.691C101.502 200.991 106.002 206.731 112.202 212.191C133.012 230.491 153.362 251.141 173.772 270.121V270.111Z" fill="#D23F20"/>
</svg>
